<svg xmlns="http://www.w3.org/2000/svg" viewBox="0 0 183.53 67.96"><defs><style>.cls-1{fill:#2d59a7;}</style></defs><path class="cls-1" d="M174.66,223.53c7.08,1,10.29-.49,13.71-6.39,2.23-3.86,4.41-7.76,6.71-11.59,1.63-2.71,2.57-5.5,1.88-8.7a6.37,6.37,0,0,1-.09-1.95,4.84,4.84,0,0,1,4.2-4.34,4.88,4.88,0,0,1,3.59,8.71,4.72,4.72,0,0,1-1.43.77c-4.15,1.24-6.34,4.35-8,8.39,6,4.79,9.5,10.89,8.31,18.9a16.85,16.85,0,0,1-6,10.94,60.26,60.26,0,0,1-3.52-6.18c-.33-.77.16-2,.54-3,2.13-5.07.9-9.85-3.43-13-4,3.79-5,8.87-2.41,13.57,2.67,4.87,5.51,9.64,8.31,14.44a10.15,10.15,0,0,0,5.69,4.64c2.11.72,3.61,2,3.81,4.4a4.84,4.84,0,1,1-9.65.84,7.07,7.07,0,0,1,.11-2c.87-4.13-.9-7.39-3.37-10.62-6.46,2.58-12.77,2.74-18.81-1a17.33,17.33,0,0,1-8-11.44,15.25,15.25,0,0,1,7.56-.22c.73.12,1.31,1.34,1.9,2.1,2.83,3.66,6.59,4.8,11,4a8.12,8.12,0,0,0,1.72-.74c-1.48-5.54-4.93-8.69-10.34-8.91-5.76-.22-11.54-.08-17.31,0a9.68,9.68,0,0,0-6.29,2.41,9.69,9.69,0,0,1-1.3,1,4.8,4.8,0,0,1-6.45-1.11,5.12,5.12,0,0,1,.07-6.07,4.94,4.94,0,0,1,6.49-1,6.63,6.63,0,0,1,1,.79c3.17,2.73,6.84,2.94,10.9,2.28,1-7.45,4.5-13.22,11.52-16.29a16,16,0,0,1,13-.47,71.82,71.82,0,0,1-3.78,6.3c-.43.59-1.74.6-2.66.74a10.72,10.72,0,0,0-9.32,7.59,5,5,0,0,0-.2,1.28A3.66,3.66,0,0,0,174.66,223.53Z" transform="translate(-146.39 -190.52)"/><path class="cls-1" d="M174.24,246a2.89,2.89,0,1,1-.39,5.77,2.72,2.72,0,0,1-2.59-3.07A2.76,2.76,0,0,1,174.24,246Z" transform="translate(-146.39 -190.52)"/><path class="cls-1" d="M174.35,201.31a2.85,2.85,0,0,1-2.95,2.78,2.77,2.77,0,0,1-2.87-3.13,2.82,2.82,0,0,1,3.07-2.65A2.93,2.93,0,0,1,174.35,201.31Z" transform="translate(-146.39 -190.52)"/><path class="cls-1" d="M212.11,227.49a2.83,2.83,0,0,1-3-2.77,2.76,2.76,0,0,1,2.63-3.06,2.88,2.88,0,0,1,3.16,2.89A3,3,0,0,1,212.11,227.49Z" transform="translate(-146.39 -190.52)"/><path class="cls-1" d="M254.87,211.19v27.32h-6.32v-11.2H236.13v11.2h-6.32V211.19h6.32V222h12.42V211.19Z" transform="translate(-146.39 -190.52)"/><path class="cls-1" d="M260.18,211.19a3.48,3.48,0,0,1,3.78-3.4c2.27,0,3.79,1.41,3.79,3.28a3.8,3.8,0,0,1-7.57.12Zm.74,6.32H267v21h-6.09Z" transform="translate(-146.39 -190.52)"/><path class="cls-1" d="M295.54,228c0,6.6-4.57,10.81-10.46,10.81a8.15,8.15,0,0,1-6.33-2.54v9.8h-6.09V217.51h5.82v2.42a8.18,8.18,0,0,1,6.6-2.73C291,217.2,295.54,221.41,295.54,228Zm-6.17,0c0-3.63-2.3-5.82-5.35-5.82s-5.34,2.19-5.34,5.82,2.3,5.82,5.34,5.82S289.37,231.64,289.37,228Z" transform="translate(-146.39 -190.52)"/><path class="cls-1" d="M299.6,209.55h6.08v29H299.6Z" transform="translate(-146.39 -190.52)"/><path class="cls-1" d="M329.92,226.53v12h-5.7v-2.62c-1.13,1.92-3.32,2.93-6.4,2.93-4.92,0-7.84-2.73-7.84-6.36s2.61-6.28,9-6.28h4.84c0-2.62-1.56-4.14-4.84-4.14a10.1,10.1,0,0,0-6.05,2l-2.18-4.26a16.2,16.2,0,0,1,9.05-2.53C326.21,217.2,329.92,220.16,329.92,226.53Zm-6.09,5.34v-2.14h-4.17c-2.85,0-3.75,1.05-3.75,2.46s1.29,2.53,3.43,2.53A4.48,4.48,0,0,0,323.83,231.87Z" transform="translate(-146.39 -190.52)"/></svg>