<svg xmlns="http://www.w3.org/2000/svg" viewBox="0 0 802.1095 365.2352"><defs><style>.a873351e-1453-49e8-8a45-0f3071b28e45{fill:#fcbc00;}.a873351e-1453-49e8-8a45-0f3071b28e45,.a95d1384-862d-4622-a23d-9374a31a131e,.aa0f1bae-d9c4-4141-82b2-4c478a88e871,.ebf179e7-6d1d-4182-b87f-94068adb07cf,.fa9fa8d8-d8af-4971-82b5-d36ebbe111c6{fill-rule:evenodd;}.ebf179e7-6d1d-4182-b87f-94068adb07cf{fill:#e73a23;}.a95d1384-862d-4622-a23d-9374a31a131e{fill:#5bb23c;}.aa0f1bae-d9c4-4141-82b2-4c478a88e871{fill:#008bd2;}.fa9fa8d8-d8af-4971-82b5-d36ebbe111c6{fill:#ef7c00;}</style></defs><title>Hipla_Logo</title><path class="a873351e-1453-49e8-8a45-0f3071b28e45" d="M774.4868,269.7523c0-16.1517-8.1679-24.1739-24.5051-24.1724l-61.2481.0039c-27.8949.0614-27.6348-48.9474,0-49.0126l61.2481-.003q73.5175-.0058,73.5183,73.52v49.0127q0,73.52-73.5139,73.5183H688.9383q-61.4888,0-61.489-62.3807,0-60.1513,61.489-60.15h59.455c27.6363.0652,27.8964,49.074,0,49.0127h-59.455q-12.4749,0-12.4759,12.0292,0,12.4771,12.4759,12.4759h61.0464c12.2672.05,24.5355-6.8577,24.5051-20.8233Z" transform="translate(-21.3905 -125.4023)"/><path class="ebf179e7-6d1d-4182-b87f-94068adb07cf" d="M448.0547,196.5682q73.52-.0147,73.5208,73.52v49.0127q0,73.52-74.41,73.5183l-46.3839.0014c-27.8964.0609-27.6363-48.9494,0-49.0117l47.2726-.0029q24.508,0,24.5081-24.5051V270.088q0-24.5081-24.5081-24.5081H399.0406q-24.508,0-24.5066,24.5081l.0015,73.5178.0093,126.2074c-.0653,27.6334-49.074,27.8979-49.0127,0V270.0963q0-73.52,73.5193-73.52Z" transform="translate(-21.3905 -125.4023)"/><path class="a95d1384-862d-4622-a23d-9374a31a131e" d="M600.151,146.2272l.0363,225.1886c-.0623,27.6364-49.074,27.8979-49.0126,0l-.0364-225.1886C551.077,118.3293,600.0887,118.5923,600.151,146.2272Z" transform="translate(-21.3905 -125.4023)"/><path class="aa0f1bae-d9c4-4141-82b2-4c478a88e871" d="M282.0777,262.5526c5.9449,2.9016,9.905,8.0889,9.905,14.0034,0,9.0929-9.3613,15.4133-20.9038,15.4133-10.2181.0142-20.812-5.8-20.9067-15.4133-.0584-5.8939,3.8992-11.0709,9.8372-13.9783l22.0683-.0251Zm2.6591-3.7971L257.49,259.06a20.7835,20.7835,0,0,0-6.6516,5.5735l-16.0256,17.9326,12.2143,2.9491-.0167,86.1787c-.0623,27.8964,48.9465,27.6363,49.0132,0l-.0378-95.1577c-.0182-8.5658-4.7432-14.5039-11.2491-17.7809ZM271.0023,142.8746a29.0823,29.0823,0,1,1-14.7861,54.13c-8.7076.8416-11.1936.7165-16.0256.3867,2.7779-2.4354,4.8237-4.1131,6.9215-8.8465a29.0846,29.0846,0,0,1,23.89-45.6705ZM257.5181,259.0254c-16.7-24.4649-33.0445-52.7813-33.0445-87.0663a46.528,46.528,0,1,1,93.056,0c0,34.16-16.2205,62.3914-32.858,86.7979l-27.1535.2684Zm24.5257,3.5552-22.0344.0638c3.7461,5.4027,7.4726,10.6219,10.9929,15.6782,3.5376-5.0744,7.2876-10.3143,11.0415-15.742Zm-24.73-94.2925a3.0572,3.0572,0,0,0-2.2808.97,3.468,3.468,0,0,0,0,4.7319,3.1746,3.1746,0,0,0,4.5621,0,3.4693,3.4693,0,0,0,0-4.7319,3.0432,3.0432,0,0,0-2.2813-.97Zm13.8449,0a3.0583,3.0583,0,0,0-2.2813.97,3.4693,3.4693,0,0,0,0,4.7319,3.1746,3.1746,0,0,0,4.5621,0,3.4655,3.4655,0,0,0,0-4.7319,3.0406,3.0406,0,0,0-2.2808-.97Zm13.8444,0a3.0529,3.0529,0,0,0-2.28.97,3.4693,3.4693,0,0,0,0,4.7319,3.1734,3.1734,0,0,0,4.5611,0,3.4653,3.4653,0,0,0,0-4.7319A3.0423,3.0423,0,0,0,285.0028,168.2881Z" transform="translate(-21.3905 -125.4023)"/><path class="fa9fa8d8-d8af-4971-82b5-d36ebbe111c6" d="M70.4425,199.0389A111.8525,111.8525,0,0,1,94.9309,196.57l49.0279-.0015q73.52,0,73.5183,73.52l-.003,101.6689c-.0638,27.6348-49.074,27.8974-49.0126,0l.0024-101.6689q0-24.5081-24.5051-24.5081H94.9432c-12.2683-.0486-24.5341,6.86-24.5037,20.8243v105.39c-.0638,27.6378-49.074,27.8979-49.0132,0L21.3905,146.608c-.0613-27.8974,48.9489-27.6359,49.0127,0Z" transform="translate(-21.3905 -125.4023)"/></svg>