<svg xmlns="http://www.w3.org/2000/svg" width="68.562" height="67.883" viewBox="0 0 68.562 67.883"><path d="M174.66,223.53c7.08,1,10.29-.49,13.71-6.39,2.23-3.86,4.41-7.76,6.71-11.59,1.63-2.71,2.57-5.5,1.88-8.7a6.37,6.37,0,0,1-.09-1.95,4.863,4.863,0,1,1,7.79,4.37,4.72,4.72,0,0,1-1.43.77c-4.15,1.24-6.34,4.35-8,8.39,6,4.79,9.5,10.89,8.31,18.9a16.85,16.85,0,0,1-6,10.94,60.257,60.257,0,0,1-3.52-6.18c-.33-.77.16-2,.54-3,2.13-5.07.9-9.85-3.43-13-4,3.79-5,8.87-2.41,13.57,2.67,4.87,5.51,9.64,8.31,14.44a10.15,10.15,0,0,0,5.69,4.64c2.11.72,3.61,2,3.81,4.4a4.843,4.843,0,0,1-9.65.84,7.07,7.07,0,0,1,.11-2c.87-4.13-.9-7.39-3.37-10.62-6.46,2.58-12.77,2.74-18.81-1a17.33,17.33,0,0,1-8-11.44,15.25,15.25,0,0,1,7.56-.22c.73.12,1.31,1.34,1.9,2.1,2.83,3.66,6.59,4.8,11,4a8.12,8.12,0,0,0,1.72-.74c-1.48-5.54-4.93-8.69-10.34-8.91-5.76-.22-11.54-.08-17.31,0a9.68,9.68,0,0,0-6.29,2.41,9.692,9.692,0,0,1-1.3,1,4.8,4.8,0,0,1-6.45-1.11,5.12,5.12,0,0,1,.07-6.07,4.94,4.94,0,0,1,6.49-1,6.63,6.63,0,0,1,1,.79c3.17,2.73,6.84,2.94,10.9,2.28,1-7.45,4.5-13.22,11.52-16.29a16,16,0,0,1,13-.47,71.819,71.819,0,0,1-3.78,6.3c-.43.59-1.74.6-2.66.74a10.72,10.72,0,0,0-9.32,7.59,5,5,0,0,0-.2,1.28,3.66,3.66,0,0,0,.34.93Z" transform="translate(-146.338 -190.521)" fill="#2d59a7"/><path d="M174.24,246a2.892,2.892,0,0,1-.39,5.77,2.72,2.72,0,0,1-2.59-3.07,2.76,2.76,0,0,1,2.98-2.7Z" transform="translate(-146.338 -190.521)" fill="#2d59a7"/><path d="M174.35,201.31a2.85,2.85,0,0,1-2.95,2.78,2.77,2.77,0,0,1-2.87-3.13,2.82,2.82,0,0,1,3.07-2.65A2.93,2.93,0,0,1,174.35,201.31Z" transform="translate(-146.338 -190.521)" fill="#2d59a7"/><path d="M212.11,227.49a2.83,2.83,0,0,1-3-2.77,2.76,2.76,0,0,1,2.63-3.06,2.88,2.88,0,0,1,3.16,2.89,3,3,0,0,1-2.79,2.94Z" transform="translate(-146.338 -190.521)" fill="#2d59a7"/></svg>