<svg id="407adc5a-50c7-4961-ae02-650159b1080d" data-name="Layer 1" xmlns="http://www.w3.org/2000/svg" xmlns:xlink="http://www.w3.org/1999/xlink" width="1084.77" height="805.94" viewBox="0 0 1084.77 805.94">
<defs>
<linearGradient id="179ebb31-13d7-4782-b976-217ca552d475" x1="822.82" y1="797.01" x2="822.82" y2="304.35" gradientUnits="userSpaceOnUse">
<stop offset="0" stop-color="gray" stop-opacity="0.25"/>
<stop offset="0.54" stop-color="gray" stop-opacity="0.12"/>
<stop offset="1" stop-color="gray" stop-opacity="0.1"/>
</linearGradient>
<linearGradient id="311db79b-9222-4ebe-ab0a-c40379daabe1" x1="258.73" y1="794.35" x2="258.73" y2="303.01" xlink:href="#179ebb31-13d7-4782-b976-217ca552d475"/>
<linearGradient id="571fb74e-e46f-49c9-b145-15df7cc27286" x1="255.59" y1="323.37" x2="255.59" y2="322.54" xlink:href="#179ebb31-13d7-4782-b976-217ca552d475"/>
<linearGradient id="4e344a4a-eba6-41b7-9977-dd5bf10ac472" x1="253.51" y1="322.46" x2="253.51" y2="321.18" xlink:href="#179ebb31-13d7-4782-b976-217ca552d475"/>
</defs>
<title>smiley face</title>
<path d="M656.59,158.43c-64.72-2.24-126.36-23.14-185.22-46S354.21,64.25,291,52.13c-40.63-7.79-87.1-8.89-119.83,12.9-31.51,21-41.69,57.14-47.16,90.72-4.12,25.26-6.54,51.85,4.74,75.5,7.84,16.42,21.75,30.22,31.36,45.94,33.47,54.73,9.81,122.2-26.45,175.64-17,25.06-36.75,49-49.88,75.65S64.62,585.73,76.11,613c11.38,27,38.51,47.24,67.9,61.49,59.69,28.95,130,37.23,198.61,41.93,151.83,10.38,304.46,5.89,456.69,1.38,56.34-1.67,112.92-3.35,168.34-12.07,30.78-4.83,62.55-12.51,84.9-31,28.36-23.53,35.39-63.37,16.38-92.88-31.88-49.49-120-61.78-142.31-114.89-12.26-29.24.33-61.8,18.16-88.91,38.24-58.17,102.33-109.2,105.71-175.68,2.31-45.66-28.5-91.39-76.14-113-49.93-22.64-119.18-19.79-156,17.69C780.4,145.56,713.74,160.42,656.59,158.43Z" transform="translate(-57.62 -47.03)" fill="#93c4f7" opacity="0.1"/>
<path d="M161.56,731.1s21-3.36,33.6,11.48c0,0-9.24,7.28-29.12-2.8Z" transform="translate(-57.62 -47.03)" fill="#93c4f7"/>
<path d="M159.31,730.78s-13.39,16.52-6.82,34.84c0,0,10.92-4.37,12.11-26.63Z" transform="translate(-57.62 -47.03)" fill="#93c4f7"/>
<path d="M147.28,703.66s8.4-15.4,42,6.16c0,0-4.48,10.36-19.32,9.52S151.2,711.78,147.28,703.66Z" transform="translate(-57.62 -47.03)" fill="#93c4f7"/>
<path d="M145.11,702.55s-17.43-2-19.12,37.9c0,0,11,2.3,18.9-10.32S149.5,710.43,145.11,702.55Z" transform="translate(-57.62 -47.03)" fill="#93c4f7"/>
<path d="M135,670.73s9.8-27.17,45.36-7.84c0,0-8.12,24.92-41.72,17.08Z" transform="translate(-57.62 -47.03)" fill="#93c4f7"/>
<path d="M124,630.12s18.49-27.44,51.25-2c0,0-11.48,25.77-48.45,11.76Z" transform="translate(-57.62 -47.03)" fill="#93c4f7"/>
<path d="M120.11,591.48s21.57-25.2,54.05,0c0,0-20.44,22.12-54,6.44Z" transform="translate(-57.62 -47.03)" fill="#93c4f7"/>
<path d="M116.75,554s21.85-26.32,52.93-1.4c0,0-24.64,23.24-52.93,7.56Z" transform="translate(-57.62 -47.03)" fill="#93c4f7"/>
<path d="M118.71,520.64s23-33.89,52.09-10.93c0,0-24.64,29.13-52.09,17.37Z" transform="translate(-57.62 -47.03)" fill="#93c4f7"/>
<path d="M124,481.71s24.37-33.6,52.65-7.84c0,0-28.84,29.12-52.65,14Z" transform="translate(-57.62 -47.03)" fill="#93c4f7"/>
<path d="M132.16,446.92s28.84-31.57,54-19c0,0-30.06,33.53-55.26,27.37Z" transform="translate(-57.62 -47.03)" fill="#93c4f7"/>
<path d="M142.24,414s33.32-38.65,52.64-25.76c0,0-24.52,30-55,33Z" transform="translate(-57.62 -47.03)" fill="#93c4f7"/>
<path d="M156.79,375.69S185.92,344.11,207.2,352c0,0-24.92,32.77-54.32,33.61Z" transform="translate(-57.62 -47.03)" fill="#93c4f7"/>
<path d="M170,339.91s32.2-30.24,46.2-24.92c0,0-23.24,33.6-47.6,31.64Z" transform="translate(-57.62 -47.03)" fill="#93c4f7"/>
<path d="M182.84,306.87s27.72-36.12,42.84-33.32c0,0-16.8,32.2-42.84,37Z" transform="translate(-57.62 -47.03)" fill="#93c4f7"/>
<path d="M196.82,262.33s24.5-27.7,37.73-27.63c0,0-19.34,37-38.74,36.66Z" transform="translate(-57.62 -47.03)" fill="#93c4f7"/>
<path d="M205.1,232.67,228.76,175s1.19,52.14-26.67,68.39Z" transform="translate(-57.62 -47.03)" fill="#93c4f7"/>
<path d="M214.71,169.05s3.92-48.16,1.4-52.08c0,0,16.92,40-1.57,73.36Z" transform="translate(-57.62 -47.03)" fill="#93c4f7"/>
<path d="M134,670.08s-24.54-15.21-40.43,22c0,0,21.84,14.49,43.31-12.51Z" transform="translate(-57.62 -47.03)" fill="#93c4f7"/>
<path d="M123.25,628.58s-30.1-13.74-44.71,25.12c0,0,23.26,15.95,47.45-15.31Z" transform="translate(-57.62 -47.03)" fill="#93c4f7"/>
<path d="M118.71,593.79s-21.56-25.2-54,0c0,0,20.44,22.12,54,6.44Z" transform="translate(-57.62 -47.03)" fill="#93c4f7"/>
<path d="M116,554s-21.84-26.32-52.93-1.4c0,0,24.65,23.24,52.93,7.56Z" transform="translate(-57.62 -47.03)" fill="#93c4f7"/>
<path d="M118.71,521.59s-15.32-38-48.62-21.63c0,0,18,33.66,47.27,27.93Z" transform="translate(-57.62 -47.03)" fill="#93c4f7"/>
<path d="M126,481.52s-15.22-38.61-49-20.7c0,0,20.68,35.38,47.5,26.67Z" transform="translate(-57.62 -47.03)" fill="#93c4f7"/>
<path d="M135.4,447.12s-6-42.33-33.95-46.12c0,0,5.93,44.64,30.22,53.75Z" transform="translate(-57.62 -47.03)" fill="#93c4f7"/>
<path d="M143,414s-2.34-51-25.49-52.77c0,0,.78,38.71,22.88,60Z" transform="translate(-57.62 -47.03)" fill="#93c4f7"/>
<path d="M159.19,374.24s-6.91-42.41-29-47.6c0,0,2.74,41.08,26.82,58Z" transform="translate(-57.62 -47.03)" fill="#93c4f7"/>
<path d="M172.58,340.22s-.24-44.18-13.73-50.67c0,0-8.38,40,9.82,56.31Z" transform="translate(-57.62 -47.03)" fill="#93c4f7"/>
<path d="M183.87,306.38S182,260.88,168,254.47c0,0-4.79,36,13.77,54.89Z" transform="translate(-57.62 -47.03)" fill="#93c4f7"/>
<path d="M198.77,266s-.09-37-10.06-45.67c0,0-9.93,40.53,4.85,53.11Z" transform="translate(-57.62 -47.03)" fill="#93c4f7"/>
<path d="M203.92,230.84l-9.7-61.58S181,219.72,204.39,242Z" transform="translate(-57.62 -47.03)" fill="#93c4f7"/>
<path d="M205.82,169.64s-24.92-41.4-24.41-46c0,0,2.65,43.39,34,65Z" transform="translate(-57.62 -47.03)" fill="#93c4f7"/>
<path d="M208.74,157.41s-23.52-58.8-34.16-63.57c0,0,33.6,17.09,36.12,61.89Z" transform="translate(-57.62 -47.03)" fill="#93c4f7"/>
<path d="M195.68,271.71l-1.6-.5c19.85-64.73,24.8-106,13.94-116.34l1.16-1.22C220.69,164.56,216,205.39,195.68,271.71Z" transform="translate(-57.62 -47.03)" fill="#444053"/>
<path d="M141,423.22l-2.38-.84c2.1-5.93,4.38-11.95,6.76-17.89,20.72-51.63,38.35-99.67,49.67-136.55l2.06-1c-11.33,37-28.65,86.83-49.39,138.53C145.38,411.34,143.12,417.32,141,423.22Z" transform="translate(-57.62 -47.03)" fill="#444053"/>
<path d="M191.11,779.55c-.32-.36-32.5-36.58-54.92-98.44a364.42,364.42,0,0,1-21.7-112.77c-1.53-48.13,8.56-101.88,25.87-150.69l1.88,2.2c-38.84,109.56-23.41,203.45-2.94,260,22.19,61.29,54,97.13,54.31,97.48Z" transform="translate(-57.62 -47.03)" fill="#444053"/>
<ellipse cx="529.83" cy="734.49" rx="446.98" ry="41.12" fill="#93c4f7" opacity="0.1"/>
<circle cx="503.74" cy="449.31" r="308.5" fill="#93c4f7"/>
<ellipse cx="421.09" cy="389.51" rx="31.99" ry="41.9" fill="#444053"/>
<ellipse cx="586.39" cy="389.51" rx="31.99" ry="41.9" fill="#444053"/>
<path d="M760.17,568.33c0,60.15-100.48,161.48-201.86,161.48s-198-103.61-198-163.77,94.57-5.14,196-5.14S760.17,508.17,760.17,568.33Z" transform="translate(-57.62 -47.03)" fill="#444053"/>
<path d="M392.21,578.61s182.24,40.56,335.35,1.14c0,0,18.74,0,5.94,21.66a34.49,34.49,0,0,1-14,13.13C690,629.62,580.71,674.19,406,617.35a34.36,34.36,0,0,1-22.68-23.23C381.3,586.68,382.18,579.64,392.21,578.61Z" transform="translate(-57.62 -47.03)" fill="#f6f8fb"/>
<path d="M409.77,266.68S316.84,326.1,317.6,419,409.77,266.68,409.77,266.68Z" transform="translate(-57.62 -47.03)" opacity="0.05"/>
</svg>